<svg width="512" height="512" viewBox="0 0 512 512" fill="none" xmlns="http://www.w3.org/2000/svg">
  <rect width="512" height="512" fill="none"/>
  <g stroke="#1844A8" stroke-width="10" stroke-linecap="round" stroke-linejoin="round">
    <path d="M120 454c-18-127 4-213 49-271"/>
    <path d="M169 183c-35-56-27-125 20-169 57-53 146-51 200 6 34 36 49 85 43 132"/>
    <path d="M172 240c22-77 73-132 147-147 22-4 38 11 38 34 0 25-5 49-16 70"/>
    <path d="M171 253c-30 55-39 117-35 200"/>
    <path d="M250 444c8-98 40-170 94-214"/>
    <path d="M267 490c16-121 38-198 80-241"/>
    <path d="M320 480c8-112 1-185-24-236"/>
    <path d="M193 357c34-35 73-56 116-63"/>
    <path d="M258 204c11-7 23-10 35-9"/>
    <path d="M257 232c11 6 24 8 37 6"/>
    <path d="M271 273c18-2 34 5 45 19"/>
    <path d="M271 317c16 2 29 10 38 24"/>
  </g>
  <g transform="translate(392,456) rotate(-90)">
    <text x="0" y="0" fill="#1844A8" font-family="Times New Roman, Times, serif" font-size="64" font-weight="700" letter-spacing="1">Minha Liturgia</text>
  </g>
</svg>
